<svg width="16" height="16" viewBox="0 0 16 16" fill="none" xmlns="http://www.w3.org/2000/svg">
<g clip-path="url(#clip0_163_11807)">
<path d="M2.66699 10L2.66699 12.6667" stroke="#808080" stroke-linecap="round" stroke-linejoin="round"/>
<path d="M8 6L8 12.6667" stroke="#808080" stroke-linecap="round" stroke-linejoin="round"/>
<path d="M14.667 14.666L1.33366 14.666" stroke="#808080" stroke-linecap="round" stroke-linejoin="round"/>
<path d="M13.3335 8.66602L13.3335 12.666" stroke="#808080" stroke-linecap="round" stroke-linejoin="round"/>
<path d="M3.73356 5.86629C3.4903 5.54247 3.10303 5.33301 2.66683 5.33301C1.93045 5.33301 1.3335 5.92996 1.3335 6.66634C1.3335 7.40272 1.93045 7.99967 2.66683 7.99967C3.40321 7.99967 4.00016 7.40272 4.00016 6.66634C4.00016 6.36616 3.90096 6.08914 3.73356 5.86629ZM3.73356 5.86629L6.93343 3.46639M6.93343 3.46639C7.17669 3.79021 7.56397 3.99967 8.00016 3.99967C8.52216 3.99967 8.97409 3.69971 9.19299 3.26276M6.93343 3.46639C6.76603 3.24354 6.66683 2.96652 6.66683 2.66634C6.66683 1.92996 7.26378 1.33301 8.00016 1.33301C8.73654 1.33301 9.3335 1.92996 9.3335 2.66634C9.3335 2.88073 9.2829 3.0833 9.19299 3.26276M9.19299 3.26276L12.1407 4.73659M12.1407 4.73659C12.0508 4.91605 12.0002 5.11862 12.0002 5.33301C12.0002 6.06939 12.5971 6.66634 13.3335 6.66634C14.0699 6.66634 14.6668 6.06939 14.6668 5.33301C14.6668 4.59663 14.0699 3.99967 13.3335 3.99967C12.8115 3.99967 12.3596 4.29964 12.1407 4.73659Z" stroke="#808080"/>
</g>
<defs>
<clipPath id="clip0_163_11807">
<rect width="16" height="16" fill="white"/>
</clipPath>
</defs>
</svg>
