<svg width="16" height="16" viewBox="0 0 16 16" fill="none" xmlns="http://www.w3.org/2000/svg">
<path d="M7.00016 13.3333H9.00016C11.5059 13.3333 12.7587 13.3333 13.5952 12.6728C13.729 12.5671 13.8527 12.4506 13.965 12.3247C14.6668 11.5375 14.6668 10.3583 14.6668 8C14.6668 7.21125 14.6668 6.5544 14.6406 6H1.35975C1.3335 6.5544 1.3335 7.21125 1.3335 8C1.3335 10.3583 1.3335 11.5375 2.03536 12.3247C2.14762 12.4506 2.27135 12.5671 2.40513 12.6728C3.24159 13.3333 4.49444 13.3333 7.00016 13.3333Z" stroke="#808080" stroke-linecap="round" stroke-linejoin="round"/>
<path d="M8.99978 2.66699H6.99978C4.49407 2.66699 3.24121 2.66699 2.40475 3.32757C2.27097 3.43323 2.14724 3.54968 2.03498 3.67559C1.56786 4.19954 1.41163 4.89709 1.35938 6.00033H14.6402C14.5879 4.89709 14.4317 4.19954 13.9646 3.67559C13.8523 3.54968 13.7286 3.43323 13.5948 3.32757C12.7584 2.66699 11.5055 2.66699 8.99978 2.66699Z" fill="white"/>
<path d="M1.3335 8.00033C1.3335 5.642 1.3335 4.46284 2.03536 3.67559C2.14762 3.54968 2.27135 3.43323 2.40513 3.32757C3.24159 2.66699 4.49444 2.66699 7.00016 2.66699H9.00016C11.5059 2.66699 12.7587 2.66699 13.5952 3.32757C13.729 3.43323 13.8527 3.54968 13.965 3.67559C14.6668 4.46284 14.6668 5.642 14.6668 8.00033C14.6668 10.3586 14.6668 11.5378 13.965 12.3251C13.8527 12.451 13.729 12.5674 13.5952 12.6731C12.7587 13.3337 11.5059 13.3337 9.00016 13.3337H7.00016C4.49444 13.3337 3.24159 13.3337 2.40513 12.6731C2.27135 12.5674 2.14762 12.451 2.03536 12.3251C1.3335 11.5378 1.3335 10.3586 1.3335 8.00033Z" stroke="#808080" stroke-linecap="round" stroke-linejoin="round"/>
<path d="M6.66699 10.667H7.66699" stroke="#808080" stroke-miterlimit="10" stroke-linecap="round" stroke-linejoin="round"/>
<path d="M9.66699 10.667L12.0003 10.667" stroke="#808080" stroke-miterlimit="10" stroke-linecap="round" stroke-linejoin="round"/>
<path d="M1.3335 6H14.6668" stroke="#808080" stroke-linejoin="round"/>
</svg>
