<svg width="14" height="16" viewBox="0 0 14 16" fill="none" xmlns="http://www.w3.org/2000/svg">
<path d="M3.38505 10.3207C2.44187 10.8823 -0.0310903 12.0291 1.47511 13.4641C2.21087 14.165 3.03033 14.6663 4.06058 14.6663H9.93942C10.9697 14.6663 11.7891 14.165 12.5249 13.4641C14.0311 12.0291 11.5581 10.8823 10.615 10.3207C8.40321 9.00377 5.59679 9.00377 3.38505 10.3207Z" stroke="#808080" stroke-linecap="round" stroke-linejoin="round"/>
<path d="M3.38505 10.3207C2.44187 10.8823 -0.0310903 12.0291 1.47511 13.4641C2.21087 14.165 3.03033 14.6663 4.06058 14.6663H9.93942C10.9697 14.6663 11.7891 14.165 12.5249 13.4641C14.0311 12.0291 11.5581 10.8823 10.615 10.3207C8.40321 9.00377 5.59679 9.00377 3.38505 10.3207Z" stroke="#808080" stroke-linecap="round" stroke-linejoin="round"/>
<path d="M10 4.33301C10 5.98986 8.65685 7.33301 7 7.33301C5.34315 7.33301 4 5.98986 4 4.33301C4 2.67615 5.34315 1.33301 7 1.33301C8.65685 1.33301 10 2.67615 10 4.33301Z" fill="white"/>
<path d="M10 4.33301C10 5.98986 8.65685 7.33301 7 7.33301C5.34315 7.33301 4 5.98986 4 4.33301C4 2.67615 5.34315 1.33301 7 1.33301C8.65685 1.33301 10 2.67615 10 4.33301Z" fill="white"/>
<path d="M10 4.33301C10 5.98986 8.65685 7.33301 7 7.33301C5.34315 7.33301 4 5.98986 4 4.33301C4 2.67615 5.34315 1.33301 7 1.33301C8.65685 1.33301 10 2.67615 10 4.33301Z" stroke="#808080"/>
</svg>
