<svg width="16" height="16" viewBox="0 0 16 16" fill="none" xmlns="http://www.w3.org/2000/svg">
<g clip-path="url(#clip0_163_11823)">
<path d="M1.3335 8.00037L7.76165 11.2144C7.8491 11.2582 7.89283 11.28 7.9387 11.2886C7.97932 11.2963 8.02101 11.2963 8.06163 11.2886C8.1075 11.28 8.15122 11.2582 8.23868 11.2144L14.6668 8.00037M1.3335 11.3337L7.76165 14.5478C7.8491 14.5915 7.89283 14.6134 7.9387 14.622C7.97932 14.6296 8.02101 14.6296 8.06163 14.622C8.1075 14.6134 8.15122 14.5915 8.23868 14.5478L14.6668 11.3337M1.3335 4.66704L7.76165 1.45296C7.8491 1.40923 7.89283 1.38737 7.9387 1.37876C7.97932 1.37114 8.02101 1.37114 8.06163 1.37876C8.1075 1.38737 8.15122 1.40923 8.23868 1.45296L14.6668 4.66704L8.23868 7.88111C8.15122 7.92484 8.1075 7.9467 8.06163 7.95531C8.02101 7.96293 7.97932 7.96293 7.9387 7.95531C7.89283 7.9467 7.8491 7.92484 7.76165 7.88111L1.3335 4.66704Z" stroke="#808080" stroke-linecap="round" stroke-linejoin="round"/>
</g>
<defs>
<clipPath id="clip0_163_11823">
<rect width="16" height="16" fill="white"/>
</clipPath>
</defs>
</svg>
